<svg version="1.1" id="Layer_1" xmlns="http://www.w3.org/2000/svg" xmlns:xlink="http://www.w3.org/1999/xlink" x="0px" y="0px"
	 width="100%" viewBox="0 0 225 225" enable-background="new 0 0 225 225" xml:space="preserve">
<path fill="#000000" opacity="1.000000" stroke="none" 
	d="
M150.000000,226.000000 
	C100.000000,226.000000 50.500008,226.000000 1.000007,226.000000 
	C1.000004,151.000000 1.000004,76.000015 1.000002,1.000017 
	C75.999992,1.000011 150.999985,1.000011 225.999969,1.000006 
	C225.999985,75.999985 225.999985,150.999969 226.000000,225.999969 
	C200.833328,226.000000 175.666672,226.000000 150.000000,226.000000 
M149.108353,166.977570 
	C137.558640,170.186356 130.840851,168.010101 124.491943,157.794647 
	C121.322372,152.694763 118.551567,146.973465 117.288490,141.166107 
	C115.994865,135.218338 111.633560,140.388260 109.802208,138.015366 
	C108.857857,139.079651 107.601959,139.997696 107.022102,141.233063 
	C104.243622,147.152542 102.205627,153.492737 98.863121,159.057983 
	C93.180466,168.519608 76.279434,171.790176 69.274300,164.440857 
	C62.220356,157.040344 59.747833,147.601700 66.678970,136.878998 
	C68.608742,133.893555 70.717278,130.934677 73.209213,128.425873 
	C75.858971,125.758186 75.518005,124.062439 72.040489,122.290695 
	C82.232071,120.145920 92.058823,117.979050 101.930557,116.041359 
	C107.010872,115.044159 109.054604,111.677567 106.640762,107.225952 
	C94.741196,85.280670 78.411285,67.518021 56.673119,55.001282 
	C49.030487,50.600685 41.005894,47.306675 31.849573,47.971893 
	C25.922726,48.402496 24.279989,49.345505 25.213953,54.834763 
	C25.986967,59.378056 28.290579,63.792812 30.552975,67.914940 
	C32.975407,72.328659 38.129955,75.311058 37.951935,81.082275 
	C37.693012,89.476067 39.312897,96.909126 47.234604,101.434624 
	C42.033176,108.314384 43.654602,115.483604 46.225292,119.551117 
	C48.816528,123.651146 56.227779,125.593895 62.517929,124.205536 
	C65.158630,123.622681 67.901711,123.503700 70.712036,123.159912 
	C68.167877,126.593353 65.860146,130.117371 63.142078,133.289825 
	C57.637066,139.715149 56.648548,147.310333 58.604958,154.891190 
	C60.466843,162.105728 63.820232,168.401337 72.228737,171.225586 
	C84.660042,175.401047 96.314621,172.674454 102.936928,161.723068 
	C106.509033,155.815842 109.215546,149.385208 112.181328,143.453262 
	C114.336082,148.278900 116.564613,153.508942 118.985733,158.648270 
	C127.142906,175.963562 149.930481,178.061386 160.804916,164.541290 
	C166.665680,157.254654 168.285645,148.579178 164.267487,139.937515 
	C161.480774,133.944229 157.333374,128.583618 153.748291,122.867554 
	C161.957672,125.120216 170.987152,127.591797 177.434036,119.713875 
	C181.796082,114.383575 181.668335,107.593567 176.583984,101.488853 
	C184.640579,96.948151 186.040390,89.676544 186.207901,81.440086 
	C186.269226,78.425446 188.466217,75.326073 190.096298,72.500351 
	C192.810211,67.795929 196.458694,63.543381 198.592072,58.615047 
	C200.884277,53.319859 198.836014,48.855862 194.454453,48.323498 
	C190.620499,47.857681 186.504562,47.962967 182.757828,48.849640 
	C170.395737,51.775158 160.175613,58.648556 150.538345,66.750870 
	C136.496613,78.556145 124.866928,92.180542 116.777466,108.700615 
	C115.449738,111.412064 117.735435,115.407211 120.725410,115.996361 
	C131.021149,118.025040 141.316833,120.053963 152.281998,122.214722 
	C148.667892,123.997375 147.936035,125.654434 150.565186,128.156235 
	C152.203003,129.714737 153.439926,131.687439 154.918289,133.421799 
	C164.671692,144.864105 163.114120,160.841599 149.108353,166.977570 
z"/>
<path fill="#FFFFFF" opacity="1.000000" stroke="none" 
	d="
M149.493546,166.811752 
	C163.114120,160.841599 164.671692,144.864105 154.918289,133.421799 
	C153.439926,131.687439 152.203003,129.714737 150.565186,128.156235 
	C147.936035,125.654434 148.667892,123.997375 152.281998,122.214722 
	C141.316833,120.053963 131.021149,118.025040 120.725410,115.996361 
	C117.735435,115.407211 115.449738,111.412064 116.777466,108.700615 
	C124.866928,92.180542 136.496613,78.556145 150.538345,66.750870 
	C160.175613,58.648556 170.395737,51.775158 182.757828,48.849640 
	C186.504562,47.962967 190.620499,47.857681 194.454453,48.323498 
	C198.836014,48.855862 200.884277,53.319859 198.592072,58.615047 
	C196.458694,63.543381 192.810211,67.795929 190.096298,72.500351 
	C188.466217,75.326073 186.269226,78.425446 186.207901,81.440086 
	C186.040390,89.676544 184.640579,96.948151 176.583984,101.488853 
	C181.668335,107.593567 181.796082,114.383575 177.434036,119.713875 
	C170.987152,127.591797 161.957672,125.120216 153.748291,122.867554 
	C157.333374,128.583618 161.480774,133.944229 164.267487,139.937515 
	C168.285645,148.579178 166.665680,157.254654 160.804916,164.541290 
	C149.930481,178.061386 127.142906,175.963562 118.985733,158.648270 
	C116.564613,153.508942 114.336082,148.278900 112.181328,143.453262 
	C109.215546,149.385208 106.509033,155.815842 102.936928,161.723068 
	C96.314621,172.674454 84.660042,175.401047 72.228737,171.225586 
	C63.820232,168.401337 60.466843,162.105728 58.604958,154.891190 
	C56.648548,147.310333 57.637066,139.715149 63.142078,133.289825 
	C65.860146,130.117371 68.167877,126.593353 70.712036,123.159912 
	C67.901711,123.503700 65.158630,123.622681 62.517929,124.205536 
	C56.227779,125.593895 48.816528,123.651146 46.225292,119.551117 
	C43.654602,115.483604 42.033176,108.314384 47.234604,101.434624 
	C39.312897,96.909126 37.693012,89.476067 37.951935,81.082275 
	C38.129955,75.311058 32.975407,72.328659 30.552975,67.914940 
	C28.290579,63.792812 25.986967,59.378056 25.213953,54.834763 
	C24.279989,49.345505 25.922726,48.402496 31.849573,47.971893 
	C41.005894,47.306675 49.030487,50.600685 56.673119,55.001282 
	C78.411285,67.518021 94.741196,85.280670 106.640762,107.225952 
	C109.054604,111.677567 107.010872,115.044159 101.930557,116.041359 
	C92.058823,117.979050 82.232071,120.145920 72.040489,122.290695 
	C75.518005,124.062439 75.858971,125.758186 73.209213,128.425873 
	C70.717278,130.934677 68.608742,133.893555 66.678970,136.878998 
	C59.747833,147.601700 62.220356,157.040344 69.274300,164.440857 
	C76.279434,171.790176 93.180466,168.519608 98.863121,159.057983 
	C102.205627,153.492737 104.243622,147.152542 107.022102,141.233063 
	C107.601959,139.997696 108.857857,139.079651 109.802208,138.015366 
	C111.633560,140.388260 115.994865,135.218338 117.288490,141.166107 
	C118.551567,146.973465 121.322372,152.694763 124.491943,157.794647 
	C130.840851,168.010101 137.558640,170.186356 149.493546,166.811752 
M81.507011,81.004684 
	C73.769142,72.480247 64.949043,65.212357 54.952995,59.572029 
	C47.360703,55.288036 39.383732,51.601284 28.704498,53.601250 
	C30.728239,57.644588 32.258633,61.405067 34.396812,64.780548 
	C36.624710,68.297653 40.230431,71.117630 41.765186,74.846802 
	C43.186192,78.299561 42.715839,82.547806 42.988693,86.452011 
	C43.401371,92.356842 50.714844,99.784714 55.432671,98.885429 
	C63.896511,97.272095 72.277870,97.313980 80.547424,99.910065 
	C86.742249,101.854828 92.905289,103.900833 99.167610,105.929337 
	C97.830528,100.435242 90.368546,89.866020 81.507011,81.004684 
M165.427185,61.962360 
	C148.552109,72.254692 126.484337,96.287842 125.024368,106.374069 
	C127.576553,105.297928 129.933487,104.376320 132.230225,103.323402 
	C143.193954,98.297211 154.791687,97.461380 166.616470,97.991425 
	C168.554886,98.078308 170.730988,98.452072 172.409027,97.756584 
	C178.542236,95.214622 181.215195,90.469597 181.093918,83.714806 
	C180.995209,78.217476 181.942780,73.163002 186.421417,68.724785 
	C190.429764,64.752579 194.840683,60.120720 193.860977,53.233990 
	C183.159515,51.757568 174.506973,56.356380 165.427185,61.962360 
M54.626835,119.121643 
	C56.522308,119.397125 58.536057,120.230782 60.294212,119.858223 
	C72.450676,117.282257 84.553894,114.455002 97.982933,111.411896 
	C95.081490,110.296524 93.264954,109.784935 91.622490,108.936378 
	C81.313339,103.610229 70.237556,102.271133 58.917431,103.144218 
	C55.205765,103.430496 50.101746,103.325340 49.144524,108.475945 
	C48.370079,112.643059 48.496979,117.165825 54.626835,119.121643 
M167.515045,103.942055 
	C160.225815,104.003494 152.801529,103.227417 145.687378,104.374588 
	C139.264099,105.410339 133.180008,108.549500 126.946342,110.761070 
	C139.345184,114.439713 151.416061,117.090729 163.469574,119.818565 
	C168.286041,120.908577 174.292175,117.707436 174.991333,113.534615 
	C176.007996,107.466904 173.905151,104.426971 167.515045,103.942055 
M99.837624,107.208176 
	C100.145844,107.284218 100.454056,107.360268 100.762276,107.436310 
	C100.733154,107.046867 100.704033,106.657433 100.674919,106.267990 
	C100.305893,106.321960 99.936874,106.375923 99.837624,107.208176 
M123.051292,107.270607 
	C123.367516,107.312302 123.908089,107.471237 123.958809,107.374184 
	C124.125450,107.055313 124.114357,106.643547 124.171562,106.267479 
	C123.806625,106.333488 123.441681,106.399498 123.051292,107.270607 
z"/>
<path fill="#000000" opacity="1.000000" stroke="none" 
	d="
M81.756302,81.256851 
	C90.368546,89.866020 97.830528,100.435242 99.167610,105.929337 
	C92.905289,103.900833 86.742249,101.854828 80.547424,99.910065 
	C72.277870,97.313980 63.896511,97.272095 55.432671,98.885429 
	C50.714844,99.784714 43.401371,92.356842 42.988693,86.452011 
	C42.715839,82.547806 43.186192,78.299561 41.765186,74.846802 
	C40.230431,71.117630 36.624710,68.297653 34.396812,64.780548 
	C32.258633,61.405067 30.728239,57.644588 28.704498,53.601250 
	C39.383732,51.601284 47.360703,55.288036 54.952995,59.572029 
	C64.949043,65.212357 73.769142,72.480247 81.756302,81.256851 
z"/>
<path fill="#000000" opacity="1.000000" stroke="none" 
	d="
M165.719147,61.723877 
	C174.506973,56.356380 183.159515,51.757568 193.860977,53.233990 
	C194.840683,60.120720 190.429764,64.752579 186.421417,68.724785 
	C181.942780,73.163002 180.995209,78.217476 181.093918,83.714806 
	C181.215195,90.469597 178.542236,95.214622 172.409027,97.756584 
	C170.730988,98.452072 168.554886,98.078308 166.616470,97.991425 
	C154.791687,97.461380 143.193954,98.297211 132.230225,103.323402 
	C129.933487,104.376320 127.576553,105.297928 125.024368,106.374069 
	C126.484337,96.287842 148.552109,72.254692 165.719147,61.723877 
z"/>
<path fill="#000000" opacity="1.000000" stroke="none" 
	d="
M54.219933,119.051605 
	C48.496979,117.165825 48.370079,112.643059 49.144524,108.475945 
	C50.101746,103.325340 55.205765,103.430496 58.917431,103.144218 
	C70.237556,102.271133 81.313339,103.610229 91.622490,108.936378 
	C93.264954,109.784935 95.081490,110.296524 97.982933,111.411896 
	C84.553894,114.455002 72.450676,117.282257 60.294212,119.858223 
	C58.536057,120.230782 56.522308,119.397125 54.219933,119.051605 
z"/>
<path fill="#000000" opacity="1.000000" stroke="none" 
	d="
M167.953781,103.968620 
	C173.905151,104.426971 176.007996,107.466904 174.991333,113.534615 
	C174.292175,117.707436 168.286041,120.908577 163.469574,119.818565 
	C151.416061,117.090729 139.345184,114.439713 126.946342,110.761070 
	C133.180008,108.549500 139.264099,105.410339 145.687378,104.374588 
	C152.801529,103.227417 160.225815,104.003494 167.953781,103.968620 
z"/>
<path fill="#000000" opacity="1.000000" stroke="none" 
	d="
M99.702736,106.819031 
	C99.936874,106.375923 100.305893,106.321960 100.674919,106.267990 
	C100.704033,106.657433 100.733154,107.046867 100.762276,107.436310 
	C100.454056,107.360268 100.145844,107.284218 99.702736,106.819031 
z"/>
<path fill="#000000" opacity="1.000000" stroke="none" 
	d="
M123.064018,106.868057 
	C123.441681,106.399498 123.806625,106.333488 124.171562,106.267479 
	C124.114357,106.643547 124.125450,107.055313 123.958809,107.374184 
	C123.908089,107.471237 123.367516,107.312302 123.064018,106.868057 
z"/>
</svg>